<svg xmlns="http://www.w3.org/2000/svg" width="495.322" height="495.322" viewBox="0 0 131.054 131.054"><rect width="131.054" height="131.054" x="43.026" y="58.61" rx="9.758" ry="9.758" fill="#494949" transform="translate(-43.026 -58.61)"/><g style="line-height:125%"><path d="M102.37 114.484c0 1.14-.571 2.254-1.715 3.34-1.144 1.032-2.479 1.548-4.004 1.548-3.889 0-7.358-2.363-10.408-7.088-2.288-3.693-4.308-8.473-6.062-14.339l-3.089-11.65c-3.736 7.712-9.162 15.904-18.388 29.374l-6.993-4.116c17.462-24.495 21.035-31.776 21.035-34.872 0-4.236-2.135-6.897-6.405-7.984-1.83-.543-6.139-.814-12.925-.814-3.912-.066-6.254-.379-6.291-4.318.924-2.921 5.06-3.16 7.663-3.178 6.863 0 12.658 2.662 17.386 7.984 3.584 3.802 6.787 9.505 9.608 17.11l5.833 15.886c1.373 2.498 3.05 4.562 5.033 6.192a54.986 54.986 0 006.291 4.317c2.288 1.304 3.431 2.173 3.431 2.608z" style="-inkscape-font-specification:'GFS Didot'" font-size="96.533" font-family="GFS Didot" fill="#69d573" aria-label="λ" font-weight="400" letter-spacing="0" word-spacing="0" stroke-width="1.006"/></g><text style="line-height:125%;-inkscape-font-specification:Papyrus" x="67.742" y="177.02" font-weight="400" font-size="105.833" font-family="Papyrus" letter-spacing="0" word-spacing="0" fill="#76c9de" stroke-width=".265" transform="translate(-43.026 -58.61)"><tspan x="67.742" y="177.02" style="-inkscape-font-specification:'GFS Didot'" font-size="148.167" font-family="GFS Didot">δ</tspan></text></svg>